# File created by Blade
# Date/Time:  Tue Jan 27 18:35:03 2015
# Frame Rate: 120.000 fps
#------------------------------------------------------
:FULLY-SPECIFIED
:DEGREES
1870
root -4.263456 31.550865 -2.461907 -12.817032 12.424283 -14.007047
Spine 12.337836 -12.537303 -3.569867
Head 14.123534 -4.457646 20.308761
LeftShoulder -12.523170 11.967895 18.066986
LeftArm 27.737625 -25.476891 -74.525634
LeftForeArm 123.455585 -0.000000 135.337798
LeftHand 8.491623 -0.000000 -4.939727
LeftHandThumb1 -26.253704 0.000000 33.147579
RightShoulder -15.500278 -8.662185 -5.603193
RightArm 2.986788 -36.436817 83.316830
RightForeArm -23.491828 -0.000000 31.545896
RightHand -14.093109 -0.000000 12.010897
RightHandThumb1 -24.326973 -0.000000 -32.862282
LeftUpLeg -3.839545 3.995835 8.594229
LeftLeg 34.172172 -0.000000 -0.000000
LeftFoot -31.139085 11.007881 -19.572781
LeftToeBase 10.662939 -0.000000 -0.000000
RightUpLeg -84.072731 1.094105 24.349606
RightLeg 85.473856 -0.000000 -0.000000
RightFoot -0.931913 -15.919433 15.309543
RightToeBase 0.354318 -0.000000 -0.000000
1871
root -4.270147 31.557349 -2.467075 -12.743950 12.380124 -13.991799
Spine 12.352035 -12.536591 -3.577860
Head 14.103503 -4.507631 20.344913
LeftShoulder -12.543572 11.969083 18.058476
LeftArm 27.699898 -25.573804 -74.551744
LeftForeArm 123.447236 -0.000000 135.356554
LeftHand 8.499344 -0.000000 -4.846108
LeftHandThumb1 -26.253704 0.000000 33.147579
RightShoulder -15.534531 -8.772951 -5.550182
RightArm 3.050963 -36.431029 83.341724
RightForeArm -23.397851 0.000000 31.516119
RightHand -14.001829 -0.000000 11.980988
RightHandThumb1 -24.326973 -0.000000 -32.862282
LeftUpLeg -3.860000 4.017859 8.587812
LeftLeg 34.059408 -0.000000 -0.000000
LeftFoot -31.086321 11.067162 -19.558289
LeftToeBase 10.622246 -0.000000 -0.000000
RightUpLeg -84.038351 1.071227 24.323302
RightLeg 85.497068 -0.000000 -0.000000
RightFoot -0.913135 -16.029457 15.277113
RightToeBase 0.359724 -0.000000 -0.000000
1872
root -4.275880 31.563441 -2.472234 -12.654715 12.339223 -13.991922
Spine 12.339658 -12.526697 -3.556167
Head 14.075847 -4.534196 20.369864
LeftShoulder -12.570938 12.021752 18.030195
LeftArm 27.742439 -25.643992 -74.608357
LeftForeArm 123.472716 -0.000000 135.364573
LeftHand 8.479260 -0.000000 -4.803984
LeftHandThumb1 -26.253704 0.000000 33.147579
RightShoulder -15.580386 -8.811490 -5.519105
RightArm 3.001936 -36.349548 83.420722
RightForeArm -23.502000 0.000000 31.536777
RightHand -13.995568 -0.000000 12.055455
RightHandThumb1 -24.326973 -0.000000 -32.862282
LeftUpLeg -3.905186 4.039584 8.586336
LeftLeg 33.973147 -0.000000 -0.000000
LeftFoot -31.112509 11.054435 -19.693424
LeftToeBase 10.733481 -0.000000 -0.000000
RightUpLeg -84.015268 1.052254 24.274109
RightLeg 85.531647 -0.000000 -0.000000
RightFoot -0.878773 -15.990234 15.240256
RightToeBase 0.376750 -0.000000 -0.000000
1873
root -4.279326 31.570337 -2.477228 -12.558888 12.308575 -13.994541
Spine 12.321119 -12.526797 -3.529510
Head 14.072063 -4.613774 20.391266
LeftShoulder -12.599138 12.093851 17.999255
LeftArm 27.806439 -25.691703 -74.694043
LeftForeArm 123.476747 -0.000000 135.381439
LeftHand 8.479316 0.000000 -4.751089
LeftHandThumb1 -26.253704 0.000000 33.147579
RightShoulder -15.618887 -8.836188 -5.485009
RightArm 2.936009 -36.355216 83.494372
RightForeArm -23.393477 -0.000000 31.497529
RightHand -13.880959 -0.000000 12.001617
RightHandThumb1 -24.326973 -0.000000 -32.862282
LeftUpLeg -3.961607 3.980975 8.580947
LeftLeg 33.873974 -0.000000 -0.000000
LeftFoot -31.072067 11.159244 -19.658621
LeftToeBase 10.769219 -0.000000 -0.000000
RightUpLeg -84.004581 1.018604 24.246795
RightLeg 85.559166 -0.000000 -0.000000
RightFoot -0.864052 -16.035016 15.265501
RightToeBase 0.384268 -0.000000 -0.000000
1874
root -4.284003 31.576971 -2.483256 -12.473253 12.260174 -13.996257
Spine 12.325304 -12.522658 -3.506878
Head 14.048637 -4.645977 20.408033
LeftShoulder -12.622921 12.091273 18.001310
LeftArm 27.778358 -25.733953 -74.763926
LeftForeArm 123.494522 0.000000 135.400441
LeftHand 8.463786 0.000000 -4.727588
LeftHandThumb1 -26.253704 0.000000 33.147579
RightShoulder -15.635480 -8.831922 -5.474746
RightArm 2.847400 -36.370340 83.591789
RightForeArm -23.437013 -0.000000 31.495439
RightHand -13.986833 -0.000000 12.000474
RightHandThumb1 -24.326973 -0.000000 -32.862282
LeftUpLeg -4.008719 3.976385 8.577199
LeftLeg 33.775473 -0.000000 -0.000000
LeftFoot -30.990038 11.316020 -19.578447
LeftToeBase 10.583076 -0.000000 -0.000000
RightUpLeg -83.964620 0.998960 24.218675
RightLeg 85.554355 -0.000000 -0.000000
RightFoot -0.830423 -16.047592 15.225150
RightToeBase 0.270852 -0.000000 -0.000000
1875
root -4.291439 31.582972 -2.488948 -12.394239 12.215808 -14.000610
Spine 12.347594 -12.522130 -3.497664
Head 13.996066 -4.658383 20.440049
LeftShoulder -12.662628 12.138341 18.014261
LeftArm 27.800317 -25.763229 -74.849622
LeftForeArm 123.521058 -0.000000 135.429665
LeftHand 8.421428 0.000000 -4.765024
LeftHandThumb1 -26.253704 0.000000 33.147579
RightShoulder -15.661482 -8.857234 -5.452428
RightArm 2.809942 -36.390622 83.664536
RightForeArm -23.451449 -0.000000 31.480616
RightHand -13.885374 -0.000000 12.181147
RightHandThumb1 -24.326973 -0.000000 -32.862282
LeftUpLeg -4.054104 3.928195 8.579739
LeftLeg 33.700007 -0.000000 -0.000000
LeftFoot -31.017607 11.348362 -19.707458
LeftToeBase 10.722281 -0.000000 -0.000000
RightUpLeg -83.920944 0.981214 24.193540
RightLeg 85.543370 -0.000000 -0.000000
RightFoot -0.809755 -16.049153 15.284184
RightToeBase 0.201067 -0.000000 -0.000000
1876
root -4.295690 31.589296 -2.494211 -12.313124 12.161568 -13.990073
Spine 12.372433 -12.495102 -3.487313
Head 13.927780 -4.711656 20.452332
LeftShoulder -12.700420 12.123545 18.010287
LeftArm 27.791553 -25.760534 -74.893411
LeftForeArm 123.515012 -0.000000 135.462985
LeftHand 8.354083 -0.000000 -4.778967
LeftHandThumb1 -26.253704 0.000000 33.147579
RightShoulder -15.719242 -8.837295 -5.448624
RightArm 2.722725 -36.486815 83.764429
RightForeArm -23.338687 -0.000000 31.435620
RightHand -13.878487 0.000000 12.109571
RightHandThumb1 -24.326973 -0.000000 -32.862282
LeftUpLeg -4.085009 3.908154 8.563596
LeftLeg 33.598805 -0.000000 -0.000000
LeftFoot -30.985450 11.457907 -19.708049
LeftToeBase 10.717042 -0.000000 -0.000000
RightUpLeg -83.864381 0.956030 24.164815
RightLeg 85.532011 -0.000000 -0.000000
RightFoot -0.810906 -15.984545 15.234772
RightToeBase 0.370964 -0.000000 -0.000000
1877
root -4.299848 31.595799 -2.500023 -12.238248 12.113145 -13.986645
Spine 12.395135 -12.490613 -3.474047
Head 13.924718 -4.754423 20.450897
LeftShoulder -12.717074 12.134543 18.023208
LeftArm 27.766522 -25.767870 -74.951489
LeftForeArm 123.526715 -0.000000 135.511956
LeftHand 8.357773 -0.000000 -4.806897
LeftHandThumb1 -26.253704 0.000000 33.147579
RightShoulder -15.719138 -8.867656 -5.435278
RightArm 2.659731 -36.490786 83.840089
RightForeArm -23.516408 -0.000000 31.436432
RightHand -13.850120 0.000000 12.277554
RightHandThumb1 -24.326973 -0.000000 -32.862282
LeftUpLeg -4.114382 3.877179 8.550173
LeftLeg 33.492942 -0.000000 -0.000000
LeftFoot -30.930050 11.603344 -19.680187
LeftToeBase 10.613596 -0.000000 -0.000000
RightUpLeg -83.797656 0.919406 24.131592
RightLeg 85.513035 -0.000000 -0.000000
RightFoot -0.840050 -15.931695 15.268765
RightToeBase 0.398084 -0.000000 -0.000000
1878
root -4.305386 31.602536 -2.505402 -12.165281 12.057171 -13.983128
Spine 12.425254 -12.491390 -3.475716
Head 13.903998 -4.789810 20.451490
LeftShoulder -12.742340 12.144163 18.052170
LeftArm 27.738675 -25.767340 -75.009202
LeftForeArm 123.543419 0.000000 135.557153
LeftHand 8.391323 0.000000 -4.681350
LeftHandThumb1 -26.253704 0.000000 33.147579
RightShoulder -15.707903 -8.862021 -5.434952
RightArm 2.581994 -36.583064 83.932354
RightForeArm -23.376706 -0.000000 31.402296
RightHand -13.872178 -0.000000 12.239535
RightHandThumb1 -24.326973 -0.000000 -32.862282
LeftUpLeg -4.140451 3.869786 8.546266
LeftLeg 33.396335 -0.000000 -0.000000
LeftFoot -30.930126 11.656458 -19.753852
LeftToeBase 10.749036 -0.000000 -0.000000
RightUpLeg -83.726686 0.881398 24.144707
RightLeg 85.468257 -0.000000 -0.000000
RightFoot -0.851866 -15.968123 15.341899
RightToeBase 0.292059 -0.000000 -0.000000
1879
root -4.308590 31.610025 -2.510785 -12.091723 11.993804 -13.968809
Spine 12.454903 -12.473698 -3.471566
Head 13.889012 -4.817088 20.461980
LeftShoulder -12.766303 12.137995 18.053146
LeftArm 27.725357 -25.737768 -75.028929
LeftForeArm 123.626084 -0.000000 135.586335
LeftHand 8.356952 0.000000 -4.736461
LeftHandThumb1 -26.253704 0.000000 33.147579
RightShoulder -15.701890 -8.892657 -5.423802
RightArm 2.554670 -36.680405 83.988327
RightForeArm -23.412068 0.000000 31.331681
RightHand -13.809794 -0.000000 12.289255
RightHandThumb1 -24.326973 -0.000000 -32.862282
LeftUpLeg -4.152124 3.850176 8.518900
LeftLeg 33.263465 -0.000000 -0.000000
LeftFoot -30.836451 11.908024 -19.635047
LeftToeBase 10.528276 -0.000000 -0.000000
RightUpLeg -83.637351 0.846902 24.124808
RightLeg 85.430468 -0.000000 -0.000000
RightFoot -0.844038 -15.926075 15.296435
RightToeBase 0.249425 -0.000000 -0.000000
